<svg data-v-67d810dd="" version="1.0" xmlns="http://www.w3.org/2000/svg" xmlns:xlink="http://www.w3.org/1999/xlink"
     width="100%" height="100%" viewBox="0 0 340.000000 250.000000" preserveAspectRatio="xMidYMid meet"
     color-interpolation-filters="sRGB" class="el-tooltip" style="margin: auto;">
<!--    <rect data-v-67d810dd="" x="0" y="0" width="100%" height="100%" fill="#009bff" fill-opacity="1"></rect>-->
<!--    <rect data-v-67d810dd="" x="0" y="0" width="100%" height="100%" fill="url(#watermark)" fill-opacity="1"-->
<!--          class="watermarklayer"></rect>-->
    <g data-v-67d810dd="" fill="#009bff" class="bordersvg b-d1"
       transform="translate(-10,8.5) scale(3)">
        <path fill-opacity="0" stroke="#009bff" stroke-width="3"
              d="M 67.9216423034668 6.186132431030273 A 38.9608211517334 38.9608211517334 0 1 0 67.9216423034668 71.73550987243652"></path>
        <g transform="translate(10,6.186132431030273)">
            <g>
                <rect stroke-width="2" class="i-icon-bg" x="0" y="0" width="115.8432846069336"
                      height="65.54937744140625" fill-opacity="0"></rect> <!----> <!---->
            </g>
            <g transform="translate(10,3)">
                <g class="tp-name" transform="translate(0,0)">
                    <g>
                        <path d="M10.74-9.02L10.74-9.02L10.96-9.24L11.82-8.81L11.82-5.59L12.25-5.80Q12.25-6.02 12.25-6.88L12.25-6.88Q12.25-14.82 10.74-19.77L10.74-19.77Q10.53-20.41 9.45-21.70L9.45-21.70Q8.16-23.20 8.16-24.49L8.16-24.49L8.16-28.79Q8.16-28.79 8.59-29.00L8.59-29.00Q8.59-29.00 8.81-29.00L8.81-29.00Q13.32-26.00 14.18-23.85L14.18-23.85Q14.39-23.85 14.61-23.85L14.61-23.85Q15.25-23.85 16.11-24.71L16.11-24.71Q16.76-25.14 17.19-25.35L17.19-25.35Q17.62-25.57 19.55-26.00L19.55-26.00Q20.41-26.43 22.34-27.29L22.34-27.29Q22.99-27.71 23.20-27.93L23.20-27.93Q23.20-28.14 23.42-29.22L23.42-29.22Q23.85-30.08 23.85-30.29L23.85-30.29L22.77-30.72Q22.13-30.72 20.84-30.72L20.84-30.72Q19.55-30.72 17.40-30.51L17.40-30.51Q15.04-30.08 13.96-30.29L13.96-30.29Q6.45-30.51 6.88-33.30L6.88-33.30Q6.88-34.16 8.16-35.23L8.16-35.23Q8.16-35.45 8.38-35.88L8.38-35.88Q9.02-37.81 10.74-37.81L10.74-37.81Q11.39-37.81 12.68-37.60L12.68-37.60Q13.75-37.17 14.61-37.38L14.61-37.38Q16.33-37.38 18.26-37.38L18.26-37.38Q22.99-37.60 25.35-37.38L25.35-37.38Q29.22-37.60 33.30-37.81L33.30-37.81Q34.16-37.81 35.88-37.60L35.88-37.60Q38.46-37.17 39.75-37.60L39.75-37.60Q45.33-37.38 47.91-35.88L47.91-35.88Q48.34-35.02 48.34-34.80L48.34-34.80Q48.34-33.73 47.48-32.66L47.48-32.66Q47.27-32.44 47.27-32.23L47.27-32.23Q46.62-32.23 45.55-31.58L45.55-31.58Q45.33-31.37 45.12-31.37L45.12-31.37Q42.75-30.29 40.18-30.51L40.18-30.51Q39.75-30.51 39.75-30.72L39.75-30.72Q38.46-30.51 36.52-30.72L36.52-30.72Q35.02-31.15 34.59-31.15L34.59-31.15Q34.38-31.15 34.38-31.15L34.38-31.15Q34.16-31.15 33.73-30.94L33.73-30.94Q33.30-30.72 33.30-30.94L33.30-30.94Q32.23-30.94 32.23-31.15L32.23-31.15Q32.01-31.15 31.58-31.15L31.58-31.15Q30.72-31.15 29.00-30.72L29.00-30.72Q27.50-30.72 27.07-30.72L27.07-30.72Q28.14-28.36 30.51-28.14L30.51-28.14Q31.80-27.93 34.59-28.36L34.59-28.36Q37.17-28.57 38.67-28.57L38.67-28.57Q39.10-28.57 39.96-28.36L39.96-28.36Q41.04-28.14 41.89-28.14L41.89-28.14Q42.54-27.93 43.61-28.57L43.61-28.57Q44.47-29.22 45.33-29.22L45.33-29.22Q47.27-29.22 47.27-24.06L47.27-24.06Q47.27-23.85 47.27-23.85L47.27-23.85Q47.27-22.77 46.84-21.27L46.84-21.27Q46.62-20.41 46.62-19.77L46.62-19.77Q46.19-18.48 46.19-15.90L46.19-15.90Q46.41-15.04 46.41-14.82L46.41-14.82Q45.98-13.11 45.98-11.82L45.98-11.82Q45.76-10.31 46.41-7.73L46.41-7.73Q46.84-5.16 46.84-3.87L46.84-3.87Q46.19-0.21 44.69 0L44.69 0Q44.47 0 44.26 0L44.26 0Q40.82-1.72 41.04-8.16L41.04-8.16Q40.82-8.59 41.04-9.67L41.04-9.67Q41.25-10.53 41.25-11.17L41.25-11.17Q41.25-11.60 41.04-12.68L41.04-12.68Q40.82-13.75 41.04-14.39L41.04-14.39Q41.04-15.68 41.25-18.05L41.25-18.05Q41.46-19.77 41.68-21.70L41.68-21.70Q41.68-22.34 41.68-22.99L41.68-22.99Q41.46-23.42 41.25-23.42L41.25-23.42Q32.87-22.77 31.37-21.27L31.37-21.27Q30.72-20.20 30.94-19.12L30.94-19.12Q30.72-17.83 30.94-15.68L30.94-15.68Q31.15-13.32 31.15-12.25L31.15-12.25Q31.37-12.68 32.23-12.68L32.23-12.68Q33.09-12.68 35.02-11.39L35.02-11.39Q35.66-11.17 36.31-10.96L36.31-10.96Q36.74-10.74 36.95-10.74L36.95-10.74Q39.10-10.53 39.10-8.59L39.10-8.59Q39.10-7.09 36.95-6.88L36.95-6.88Q32.87-6.66 31.37-9.67L31.37-9.67Q31.15-9.67 31.15-10.10L31.15-10.10Q30.94-10.74 30.94-10.74L30.94-10.74Q29.86-9.45 29.65-6.45L29.65-6.45Q29.65-2.79 27.93-1.50L27.93-1.50Q27.50-1.50 26.64-1.29L26.64-1.29Q26.43-1.29 26.21-1.29L26.21-1.29Q25.35-1.07 25.35-1.72L25.35-1.72L25.35-4.51Q25.14-4.51 25.35-4.73L25.35-4.73Q25.57-4.94 25.57-5.16L25.57-5.16Q25.57-6.23 25.57-7.30L25.57-7.30L26.00-7.95Q26.00-8.38 26.00-9.02L26.00-9.02Q25.78-16.11 24.28-20.20L24.28-20.20Q24.06-20.63 23.42-20.63L23.42-20.63Q22.56-20.63 22.34-20.20L22.34-20.20L17.83-20.20Q17.40-19.77 16.97-19.98L16.97-19.98Q16.54-19.77 15.90-19.98L15.90-19.98Q15.25-20.20 15.04-20.20L15.04-20.20Q14.82-20.20 14.61-20.20L14.61-20.20Q14.61-19.34 14.39-18.05L14.39-18.05Q14.39-16.97 14.39-16.54L14.39-16.54Q14.39-12.25 15.47-10.96L15.47-10.96Q16.33-12.89 17.83-13.54L17.83-13.54Q19.34-12.68 19.77-12.46L19.77-12.46Q19.77-12.25 20.63-12.03L20.63-12.03Q24.06-10.96 24.06-9.88L24.06-9.88Q24.06-7.52 23.20-7.30L23.20-7.30Q21.48-7.30 19.77-7.30L19.77-7.30Q19.55-7.09 18.48-7.09L18.48-7.09Q18.26-7.09 18.05-7.09L18.05-7.09Q17.83-7.09 17.83-7.09L17.83-7.09Q17.83-7.09 18.05-7.52L18.05-7.52Q17.83-7.95 16.97-8.59L16.97-8.59Q16.11-9.67 15.90-10.31L15.90-10.31Q15.47-10.53 15.68-10.74L15.68-10.74L15.47-10.53Q15.25-10.10 15.04-8.16L15.04-8.16Q14.82-6.23 14.82-6.02L14.82-6.02Q14.82-5.16 14.61-5.16L14.61-5.16Q15.68-6.45 16.76-6.45L16.76-6.45Q16.76-6.23 16.76-6.02L16.76-6.02Q16.97-5.80 17.40-5.80L17.40-5.80Q17.83-5.80 18.48-5.80L18.48-5.80Q18.69-5.37 19.34-5.59L19.34-5.59Q19.77-5.80 20.20-5.80L20.20-5.80Q20.41-5.80 21.05-5.80L21.05-5.80Q21.91-6.02 22.77-6.02L22.77-6.02Q22.13-2.58 17.62-1.93L17.62-1.93Q15.04-1.93 14.61-4.30L14.61-4.30Q14.18-4.08 13.54-2.58L13.54-2.58Q11.60 0.64 9.88 0.86L9.88 0.86Q8.81 0.64 8.81 0L8.81 0Q8.81-0.64 9.45-2.36L9.45-2.36Q10.10-3.87 10.31-4.73L10.31-4.73Q10.10-4.94 10.53-6.88L10.53-6.88Q10.74-8.59 10.74-9.02ZM32.44-6.23L32.44-6.23L38.46-6.23Q39.53-6.02 39.75-5.16L39.75-5.16Q39.53-3.65 38.24-3.65L38.24-3.65Q38.03-3.65 36.31-3.44L36.31-3.44Q34.59-3.22 34.59-3.44L34.59-3.44Q34.16-3.44 32.66-3.01L32.66-3.01Q31.80-2.79 31.80-2.79L31.80-2.79Q31.58-2.79 31.58-2.79L31.58-2.79Q30.94-2.79 30.94-3.44L30.94-3.44Q31.37-5.80 32.44-6.23ZM70.47-11.60L70.47-11.60L70.47-15.90L69.18-15.90L63.81-17.40Q61.23-18.48 62.73-19.98L62.73-19.98Q65.53-22.13 68.96-22.13L68.96-22.13L69.18-22.34Q67.89-23.63 70.04-25.57L70.04-25.57Q71.33-26.21 71.97-25.35L71.97-25.35Q73.69-24.92 75.20-22.77L75.20-22.77Q75.20-22.56 75.41-22.56L75.41-22.56L78.63-22.56L79.49-21.48Q79.49-21.48 79.71-21.70L79.71-21.70Q79.28-26.43 79.06-27.50L79.06-27.50Q78.85-27.50 78.42-27.71L78.42-27.71Q77.13-28.14 76.05-29.00L76.05-29.00Q75.84-29.00 74.98-30.08L74.98-30.08Q74.77-30.08 74.55-30.29L74.55-30.29Q73.48-30.29 72.19-27.93L72.19-27.93Q71.76-27.07 71.54-26.86L71.54-26.86Q70.90-26.43 68.32-25.57L68.32-25.57Q67.46-25.78 67.46-27.93L67.46-27.93Q67.46-29.43 68.54-30.94L68.54-30.94Q69.18-32.01 69.61-33.09L69.61-33.09Q69.82-33.73 69.82-35.66L69.82-35.66Q69.82-36.09 69.82-36.52L69.82-36.52Q69.82-36.74 70.25-37.38L70.25-37.38Q70.68-38.24 70.68-38.67L70.68-38.67Q70.68-38.89 70.68-39.10L70.68-39.10L69.18-40.39Q69.39-42.54 72.40-42.97L72.40-42.97Q74.34-42.97 74.77-40.82L74.77-40.82Q74.98-39.75 75.63-39.32L75.63-39.32Q76.05-38.67 79.71-38.46L79.71-38.46Q79.92-38.46 80.14-38.67L80.14-38.67Q80.35-39.10 81.00-39.10L81.00-39.10Q84.00-38.67 84.22-36.95L84.22-36.95Q84.22-34.16 79.49-33.09L79.49-33.09Q78.85-32.87 78.63-32.87L78.63-32.87Q79.06-32.01 79.71-31.58L79.71-31.58Q81.86-30.08 81.86-28.36L81.86-28.36Q83.57-27.50 85.29-25.78L85.29-25.78Q87.87-26.00 90.23-25.14L90.23-25.14Q91.52-25.14 93.89-25.14L93.89-25.14Q94.75-25.14 96.46-25.57L96.46-25.57Q98.18-26.00 99.04-26.00L99.04-26.00Q102.48-25.78 102.70-16.33L102.70-16.33Q102.70-15.90 102.70-16.11L102.70-16.11Q102.70-15.68 102.27-14.18L102.27-14.18Q102.05-13.11 102.05-13.11L102.05-13.11Q102.05-12.89 101.84-11.39L101.84-11.39Q101.84-9.24 101.84-8.81L101.84-8.81Q102.70-4.08 100.55-0.21L100.55-0.21Q99.26 0.86 90.45 0.86L90.45 0.86Q89.38 0.86 88.09 0.64L88.09 0.64Q86.58 0.64 85.51 0.64L85.51 0.64Q84.43 0 84.65-0.21L84.65-0.21Q84.65-1.72 86.37-1.93L86.37-1.93Q87.01-1.93 88.09-1.72L88.09-1.72Q89.16-1.50 90.02-1.72L90.02-1.72Q93.03-1.07 96.04-4.73L96.04-4.73Q96.04-4.94 96.25-5.37L96.25-5.37Q96.25-6.02 96.89-6.23L96.89-6.23Q97.11-7.95 97.32-9.88L97.32-9.88Q97.32-12.03 97.54-13.96L97.54-13.96Q97.32-14.82 97.32-16.76L97.32-16.76Q97.32-18.69 97.32-19.98L97.32-19.98Q95.18-20.63 90.66-19.55L90.66-19.55Q89.59-19.34 88.95-19.34L88.95-19.34Q88.30-19.12 87.87-19.12L87.87-19.12Q85.08-19.12 83.79-17.62L83.79-17.62Q83.57-17.40 82.50-16.54L82.50-16.54Q81.43-15.47 81.43-15.47L81.43-15.47Q80.57-15.25 80.14-16.54L80.14-16.54Q79.71-17.83 79.06-17.83L79.06-17.83Q75.63-17.83 75.84-15.68L75.84-15.68Q75.84-15.04 75.84-13.96L75.84-13.96Q76.05-12.68 76.05-12.03L76.05-12.03Q78.85-11.82 79.06-8.38L79.06-8.38Q79.06-6.88 76.70-5.80L76.70-5.80Q75.63-5.59 75.41-5.37L75.41-5.37Q75.20-5.37 75.20-5.16L75.20-5.16Q74.34-4.30 71.11-3.22L71.11-3.22Q69.61-2.79 69.61-2.79L69.61-2.79Q69.18-2.58 68.75-2.15L68.75-2.15Q65.96-0.64 64.67-0.21L64.67-0.21Q62.73-0.21 63.16-2.58L63.16-2.58Q62.95-4.30 64.45-6.23L64.45-6.23Q64.45-6.23 64.45-6.88L64.45-6.88Q64.67-7.30 64.88-7.52L64.88-7.52Q65.10-7.73 66.60-8.59L66.60-8.59Q70.47-10.53 70.47-11.60ZM82.93-6.02L82.93-6.02L91.52-7.73Q91.95-7.73 92.38-7.30L92.38-7.30Q92.38-7.09 92.38-6.45L92.38-6.45Q92.60-5.59 92.60-5.37L92.60-5.37Q92.17-4.30 90.45-4.51L90.45-4.51Q89.80-4.51 89.59-4.51L89.59-4.51Q88.73-4.30 86.37-3.87L86.37-3.87Q84.65-3.44 84.22-3.44L84.22-3.44Q83.57-2.36 81.43-2.58L81.43-2.58Q81.00-2.58 80.57-2.58L80.57-2.58Q79.71-2.79 79.71-4.08L79.71-4.08Q79.49-6.45 82.93-6.02ZM94.75-12.03L94.75-12.03L94.75-9.24Q94.32-8.59 93.24-8.38L93.24-8.38Q92.81-8.38 92.81-8.38L92.81-8.38Q92.60-8.38 91.95-8.38L91.95-8.38Q90.66-8.81 90.45-8.81L90.45-8.81Q88.09-8.81 85.72-8.81L85.72-8.81Q84.22-9.24 84.43-10.53L84.43-10.53Q84.43-11.60 85.51-11.82L85.51-11.82Q85.72-11.82 86.37-11.60L86.37-11.60Q87.01-11.60 87.66-11.60L87.66-11.60Q88.52-11.39 90.45-12.03L90.45-12.03Q92.38-12.46 93.46-12.46L93.46-12.46Q94.75-12.46 94.75-12.03ZM84.86-29.22L84.86-29.22Q84.86-30.29 85.51-31.80L85.51-31.80Q85.94-32.87 86.15-33.52L86.15-33.52Q86.15-33.73 86.15-34.80L86.15-34.80Q86.15-37.81 87.23-38.24L87.23-38.24Q87.23-39.53 85.51-39.96L85.51-39.96Q84.65-40.18 84.43-40.61L84.43-40.61Q84.86-42.11 87.44-42.11L87.44-42.11Q88.52-41.89 89.38-40.18L89.38-40.18Q90.45-38.46 92.17-38.46L92.17-38.46Q92.81-38.24 94.10-38.89L94.10-38.89Q95.39-39.53 96.25-39.53L96.25-39.53Q98.83-39.32 99.04-37.60L99.04-37.60Q99.04-36.31 96.89-35.45L96.89-35.45Q95.61-34.80 95.39-34.59L95.39-34.59Q95.39-34.38 96.04-33.30L96.04-33.30Q96.68-32.01 96.89-32.01L96.89-32.01Q96.89-31.80 96.89-31.58L96.89-31.58Q97.11-31.15 97.32-30.94L97.32-30.94Q96.46-29.22 95.61-28.79L95.61-28.79Q94.10-28.79 93.24-31.15L93.24-31.15Q92.38-33.73 90.88-33.95L90.88-33.95Q89.38-33.95 88.30-30.72L88.30-30.72Q87.01-27.50 85.51-27.50L85.51-27.50Q84.65-27.50 84.65-29.00L84.65-29.00Q84.86-29.00 84.86-29.22Z"
                              transform="translate(-6.8517736486486, 42.96875)"></path>
                    </g> <!----> <!----> <!----> <!----> <!----> <!---->
                    <g fill="#fff" transform="translate(98.8432846069336,0)"></g>
                </g>
                <g class="tp-slogan" transform="translate(25.89164161682129,50.83000183105469)"><!----> <!----> <!---->
                    <g>
                        <path d="M7.83-8.58L4.59-3.47L4.59 0L3.42 0L3.42-3.47L0.19-8.58L1.55-8.58L3.98-4.45L6.47-8.58L7.83-8.58ZM14.53-3.19L14.53-8.58L15.70-8.58L15.70-3.05Q15.56 0.05 12.19 0.14L12.19 0.14Q9.05 0.05 8.91-2.86L8.91-2.86L8.91-8.58L10.08-8.58L10.08-3.19Q10.13-0.84 12.23-0.80L12.23-0.80Q14.53-0.84 14.53-3.19L14.53-3.19ZM27.75-8.58L24.52-3.47L24.52 0L23.34 0L23.34-3.47L20.11-8.58L21.47-8.58L23.91-4.45L26.39-8.58L27.75-8.58ZM34.45-3.19L34.45-8.58L35.63-8.58L35.63-3.05Q35.48 0.05 32.11 0.14L32.11 0.14Q28.97 0.05 28.83-2.86L28.83-2.86L28.83-8.58L30-8.58L30-3.19Q30.05-0.84 32.16-0.80L32.16-0.80Q34.45-0.84 34.45-3.19L34.45-3.19ZM38.81-8.58L43.13-1.64L43.13-8.58L44.25-8.58L44.25 0L42.94 0L38.58-6.94L38.53-6.94L38.53 0L37.41 0L37.41-8.58L38.81-8.58Z"
                              transform="translate(-0.1875, 8.578125)"></path>
                    </g>
                </g>
            </g>
        </g>
    </g>
</svg>
